<?xml version="1.0" standalone="no"?>
<!DOCTYPE svg PUBLIC "-//W3C//DTD SVG 20010904//EN"
 "http://www.w3.org/TR/2001/REC-SVG-20010904/DTD/svg10.dtd">
<svg version="1.0" xmlns="http://www.w3.org/2000/svg"
 width="512.000000pt" height="512.000000pt" viewBox="0 0 512.000000 512.000000"
 preserveAspectRatio="xMidYMid meet">

<g transform="translate(0.000000,512.000000) scale(0.100000,-0.100000)"
fill="#000000" stroke="none">
<path d="M1116 4809 c-406 -39 -746 -342 -842 -749 -16 -68 -18 -155 -21 -887
l-4 -813 -25 0 -25 0 3 -682 4 -683 26 -95 c96 -353 363 -616 721 -713 l82
-22 1490 -3 c1049 -2 1514 0 1570 8 393 54 703 320 819 700 14 47 30 126 36
175 6 59 7 457 3 1153 -5 876 -9 1062 -20 1062 -10 0 -13 -25 -13 -110 0 -110
0 -110 -24 -110 l-24 0 -5 473 c-4 401 -7 483 -22 547 -95 415 -434 710 -860
750 -134 12 -2737 11 -2869 -1z m1159 -801 c16 -7 29 -24 36 -47 7 -24 9 -487
7 -1423 l-3 -1387 -23 -23 -23 -23 -662 -3 c-364 -1 -672 0 -684 3 -12 3 -32
15 -43 27 -20 22 -20 29 -20 1430 l0 1409 25 24 24 25 670 0 c489 0 677 -3
696 -12z m1960 -13 l25 -24 0 -894 0 -894 -26 -27 -27 -26 -673 0 -673 0 -28
24 -28 24 -3 884 c-2 619 1 891 9 909 6 15 20 31 32 37 15 7 245 11 695 11
l673 1 24 -25z"/>
</g>
</svg>
